<mxfile host="Electron" modified="2023-12-09T05:06:24.916Z" agent="Mozilla/5.0 (Windows NT 10.0; Win64; x64) AppleWebKit/537.36 (KHTML, like Gecko) draw.io/22.1.2 Chrome/114.0.5735.289 Electron/25.9.4 Safari/537.36" etag="skpKBDPES2oL4joJ5Rja" version="22.1.2" type="device">
  <diagram name="Page-1" id="7tl6lFkWoAw2VG42c7L6">
    <mxGraphModel dx="1020" dy="544" grid="1" gridSize="10" guides="1" tooltips="1" connect="1" arrows="1" fold="1" page="1" pageScale="1" pageWidth="850" pageHeight="1100" math="0" shadow="0">
      <root>
        <mxCell id="0" />
        <mxCell id="1" parent="0" />
        <mxCell id="Ms52BHoTtpPrmMX0IoHk-3" value="" style="edgeStyle=orthogonalEdgeStyle;rounded=0;orthogonalLoop=1;jettySize=auto;html=1;" edge="1" parent="1" source="Ms52BHoTtpPrmMX0IoHk-1" target="Ms52BHoTtpPrmMX0IoHk-2">
          <mxGeometry relative="1" as="geometry" />
        </mxCell>
        <mxCell id="Ms52BHoTtpPrmMX0IoHk-1" value="Identifikasi Masalah" style="rounded=0;whiteSpace=wrap;html=1;" vertex="1" parent="1">
          <mxGeometry x="100" y="970" width="150" height="60" as="geometry" />
        </mxCell>
        <mxCell id="Ms52BHoTtpPrmMX0IoHk-5" value="" style="edgeStyle=orthogonalEdgeStyle;rounded=0;orthogonalLoop=1;jettySize=auto;html=1;" edge="1" parent="1" source="Ms52BHoTtpPrmMX0IoHk-2" target="Ms52BHoTtpPrmMX0IoHk-4">
          <mxGeometry relative="1" as="geometry" />
        </mxCell>
        <mxCell id="Ms52BHoTtpPrmMX0IoHk-2" value="Studi Literatur" style="rounded=0;whiteSpace=wrap;html=1;" vertex="1" parent="1">
          <mxGeometry x="100" y="1060" width="150" height="60" as="geometry" />
        </mxCell>
        <mxCell id="Ms52BHoTtpPrmMX0IoHk-7" value="" style="edgeStyle=orthogonalEdgeStyle;rounded=0;orthogonalLoop=1;jettySize=auto;html=1;" edge="1" parent="1" source="Ms52BHoTtpPrmMX0IoHk-4" target="Ms52BHoTtpPrmMX0IoHk-6">
          <mxGeometry relative="1" as="geometry" />
        </mxCell>
        <mxCell id="Ms52BHoTtpPrmMX0IoHk-4" value="Pengambilan data mentah dari AWOS" style="rounded=0;whiteSpace=wrap;html=1;" vertex="1" parent="1">
          <mxGeometry x="100" y="1160" width="150" height="60" as="geometry" />
        </mxCell>
        <mxCell id="Ms52BHoTtpPrmMX0IoHk-9" value="" style="edgeStyle=orthogonalEdgeStyle;rounded=0;orthogonalLoop=1;jettySize=auto;html=1;" edge="1" parent="1" source="Ms52BHoTtpPrmMX0IoHk-6" target="Ms52BHoTtpPrmMX0IoHk-8">
          <mxGeometry relative="1" as="geometry">
            <Array as="points">
              <mxPoint x="280" y="1280" />
              <mxPoint x="280" y="1000" />
            </Array>
          </mxGeometry>
        </mxCell>
        <mxCell id="Ms52BHoTtpPrmMX0IoHk-6" value="&lt;i&gt;Pre-Processing &lt;/i&gt;Data" style="rounded=0;whiteSpace=wrap;html=1;" vertex="1" parent="1">
          <mxGeometry x="100" y="1250" width="150" height="60" as="geometry" />
        </mxCell>
        <mxCell id="Ms52BHoTtpPrmMX0IoHk-11" value="" style="edgeStyle=orthogonalEdgeStyle;rounded=0;orthogonalLoop=1;jettySize=auto;html=1;" edge="1" parent="1" source="Ms52BHoTtpPrmMX0IoHk-8" target="Ms52BHoTtpPrmMX0IoHk-10">
          <mxGeometry relative="1" as="geometry" />
        </mxCell>
        <mxCell id="Ms52BHoTtpPrmMX0IoHk-8" value="Implementasi Regresi data dengan beberapa algoritma &lt;i&gt;machine learning&lt;/i&gt;" style="rounded=0;whiteSpace=wrap;html=1;" vertex="1" parent="1">
          <mxGeometry x="320" y="970" width="150" height="60" as="geometry" />
        </mxCell>
        <mxCell id="Ms52BHoTtpPrmMX0IoHk-13" value="" style="edgeStyle=orthogonalEdgeStyle;rounded=0;orthogonalLoop=1;jettySize=auto;html=1;" edge="1" parent="1" source="Ms52BHoTtpPrmMX0IoHk-10" target="Ms52BHoTtpPrmMX0IoHk-12">
          <mxGeometry relative="1" as="geometry" />
        </mxCell>
        <mxCell id="Ms52BHoTtpPrmMX0IoHk-10" value="Menghitung &lt;i&gt;Root Mean Square Error &lt;/i&gt;dari beberapa algoritma yang dipakai" style="rounded=0;whiteSpace=wrap;html=1;" vertex="1" parent="1">
          <mxGeometry x="320" y="1060" width="150" height="60" as="geometry" />
        </mxCell>
        <mxCell id="Ms52BHoTtpPrmMX0IoHk-15" value="" style="edgeStyle=orthogonalEdgeStyle;rounded=0;orthogonalLoop=1;jettySize=auto;html=1;" edge="1" parent="1" source="Ms52BHoTtpPrmMX0IoHk-12" target="Ms52BHoTtpPrmMX0IoHk-14">
          <mxGeometry relative="1" as="geometry" />
        </mxCell>
        <mxCell id="Ms52BHoTtpPrmMX0IoHk-12" value="Pengujian dan Hasil Analisis" style="rounded=0;whiteSpace=wrap;html=1;" vertex="1" parent="1">
          <mxGeometry x="320" y="1160" width="150" height="60" as="geometry" />
        </mxCell>
        <mxCell id="Ms52BHoTtpPrmMX0IoHk-14" value="Kesimpulan" style="rounded=0;whiteSpace=wrap;html=1;" vertex="1" parent="1">
          <mxGeometry x="320" y="1250" width="150" height="60" as="geometry" />
        </mxCell>
      </root>
    </mxGraphModel>
  </diagram>
</mxfile>
